<mxfile host="app.diagrams.net" modified="2020-08-06T10:16:29.114Z" agent="5.0 (Macintosh; Intel Mac OS X 10_15_3) AppleWebKit/537.36 (KHTML, like Gecko) Chrome/84.0.4147.105 Safari/537.36" etag="fd8e-s80GkkzifXiEfUX" version="13.6.0" type="github">
  <diagram id="R2lEEEUBdFMjLlhIrx00" name="Page-1">
    <mxGraphModel dx="1426" dy="843" grid="1" gridSize="10" guides="1" tooltips="1" connect="1" arrows="1" fold="1" page="1" pageScale="1" pageWidth="850" pageHeight="1100" math="0" shadow="0" extFonts="Permanent Marker^https://fonts.googleapis.com/css?family=Permanent+Marker">
      <root>
        <mxCell id="0" />
        <mxCell id="1" parent="0" />
        <mxCell id="XPg9PzQZyJ1UFa8llITL-1" value="" style="edgeStyle=entityRelationEdgeStyle;endArrow=ERzeroToMany;startArrow=ERone;endFill=1;startFill=0;" edge="1" parent="1" source="XPg9PzQZyJ1UFa8llITL-24" target="XPg9PzQZyJ1UFa8llITL-7">
          <mxGeometry width="100" height="100" relative="1" as="geometry">
            <mxPoint x="320" y="760" as="sourcePoint" />
            <mxPoint x="420" y="660" as="targetPoint" />
          </mxGeometry>
        </mxCell>
        <mxCell id="XPg9PzQZyJ1UFa8llITL-3" value="affiliate_course" style="shape=table;startSize=30;container=1;collapsible=1;childLayout=tableLayout;fixedRows=1;rowLines=0;fontStyle=1;align=center;resizeLast=1;" vertex="1" parent="1">
          <mxGeometry x="430" y="160" width="250" height="130" as="geometry" />
        </mxCell>
        <mxCell id="XPg9PzQZyJ1UFa8llITL-4" value="" style="shape=partialRectangle;collapsible=0;dropTarget=0;pointerEvents=0;fillColor=none;points=[[0,0.5],[1,0.5]];portConstraint=eastwest;top=0;left=0;right=0;bottom=1;" vertex="1" parent="XPg9PzQZyJ1UFa8llITL-3">
          <mxGeometry y="30" width="250" height="30" as="geometry" />
        </mxCell>
        <mxCell id="XPg9PzQZyJ1UFa8llITL-5" value="PK" style="shape=partialRectangle;overflow=hidden;connectable=0;fillColor=none;top=0;left=0;bottom=0;right=0;fontStyle=1;" vertex="1" parent="XPg9PzQZyJ1UFa8llITL-4">
          <mxGeometry width="30" height="30" as="geometry" />
        </mxCell>
        <mxCell id="XPg9PzQZyJ1UFa8llITL-6" value="ac_id" style="shape=partialRectangle;overflow=hidden;connectable=0;fillColor=none;top=0;left=0;bottom=0;right=0;align=left;spacingLeft=6;fontStyle=5;" vertex="1" parent="XPg9PzQZyJ1UFa8llITL-4">
          <mxGeometry x="30" width="220" height="30" as="geometry" />
        </mxCell>
        <mxCell id="XPg9PzQZyJ1UFa8llITL-7" value="" style="shape=partialRectangle;collapsible=0;dropTarget=0;pointerEvents=0;fillColor=none;points=[[0,0.5],[1,0.5]];portConstraint=eastwest;top=0;left=0;right=0;bottom=0;" vertex="1" parent="XPg9PzQZyJ1UFa8llITL-3">
          <mxGeometry y="60" width="250" height="30" as="geometry" />
        </mxCell>
        <mxCell id="XPg9PzQZyJ1UFa8llITL-8" value="FK1" style="shape=partialRectangle;overflow=hidden;connectable=0;fillColor=none;top=0;left=0;bottom=0;right=0;" vertex="1" parent="XPg9PzQZyJ1UFa8llITL-7">
          <mxGeometry width="30" height="30" as="geometry" />
        </mxCell>
        <mxCell id="XPg9PzQZyJ1UFa8llITL-9" value="ae_id" style="shape=partialRectangle;overflow=hidden;connectable=0;fillColor=none;top=0;left=0;bottom=0;right=0;align=left;spacingLeft=6;" vertex="1" parent="XPg9PzQZyJ1UFa8llITL-7">
          <mxGeometry x="30" width="220" height="30" as="geometry" />
        </mxCell>
        <mxCell id="XPg9PzQZyJ1UFa8llITL-10" value="" style="shape=partialRectangle;collapsible=0;dropTarget=0;pointerEvents=0;fillColor=none;points=[[0,0.5],[1,0.5]];portConstraint=eastwest;top=0;left=0;right=0;bottom=0;" vertex="1" parent="XPg9PzQZyJ1UFa8llITL-3">
          <mxGeometry y="90" width="250" height="30" as="geometry" />
        </mxCell>
        <mxCell id="XPg9PzQZyJ1UFa8llITL-11" value="" style="shape=partialRectangle;overflow=hidden;connectable=0;fillColor=none;top=0;left=0;bottom=0;right=0;" vertex="1" parent="XPg9PzQZyJ1UFa8llITL-10">
          <mxGeometry width="30" height="30" as="geometry" />
        </mxCell>
        <mxCell id="XPg9PzQZyJ1UFa8llITL-12" value="course_id" style="shape=partialRectangle;overflow=hidden;connectable=0;fillColor=none;top=0;left=0;bottom=0;right=0;align=left;spacingLeft=6;" vertex="1" parent="XPg9PzQZyJ1UFa8llITL-10">
          <mxGeometry x="30" width="220" height="30" as="geometry" />
        </mxCell>
        <mxCell id="XPg9PzQZyJ1UFa8llITL-23" value="affiliate_event" style="shape=table;startSize=30;container=1;collapsible=1;childLayout=tableLayout;fixedRows=1;rowLines=0;fontStyle=1;align=center;resizeLast=1;" vertex="1" parent="1">
          <mxGeometry x="100" y="160" width="250" height="310" as="geometry" />
        </mxCell>
        <mxCell id="XPg9PzQZyJ1UFa8llITL-24" value="" style="shape=partialRectangle;collapsible=0;dropTarget=0;pointerEvents=0;fillColor=none;points=[[0,0.5],[1,0.5]];portConstraint=eastwest;top=0;left=0;right=0;bottom=1;" vertex="1" parent="XPg9PzQZyJ1UFa8llITL-23">
          <mxGeometry y="30" width="250" height="30" as="geometry" />
        </mxCell>
        <mxCell id="XPg9PzQZyJ1UFa8llITL-25" value="PK" style="shape=partialRectangle;overflow=hidden;connectable=0;fillColor=none;top=0;left=0;bottom=0;right=0;fontStyle=1;" vertex="1" parent="XPg9PzQZyJ1UFa8llITL-24">
          <mxGeometry width="30" height="30" as="geometry" />
        </mxCell>
        <mxCell id="XPg9PzQZyJ1UFa8llITL-26" value="ae_id" style="shape=partialRectangle;overflow=hidden;connectable=0;fillColor=none;top=0;left=0;bottom=0;right=0;align=left;spacingLeft=6;fontStyle=5;" vertex="1" parent="XPg9PzQZyJ1UFa8llITL-24">
          <mxGeometry x="30" width="220" height="30" as="geometry" />
        </mxCell>
        <mxCell id="XPg9PzQZyJ1UFa8llITL-27" value="" style="shape=partialRectangle;collapsible=0;dropTarget=0;pointerEvents=0;fillColor=none;points=[[0,0.5],[1,0.5]];portConstraint=eastwest;top=0;left=0;right=0;bottom=0;" vertex="1" parent="XPg9PzQZyJ1UFa8llITL-23">
          <mxGeometry y="60" width="250" height="30" as="geometry" />
        </mxCell>
        <mxCell id="XPg9PzQZyJ1UFa8llITL-28" value="" style="shape=partialRectangle;overflow=hidden;connectable=0;fillColor=none;top=0;left=0;bottom=0;right=0;" vertex="1" parent="XPg9PzQZyJ1UFa8llITL-27">
          <mxGeometry width="30" height="30" as="geometry" />
        </mxCell>
        <mxCell id="XPg9PzQZyJ1UFa8llITL-29" value="ae_status" style="shape=partialRectangle;overflow=hidden;connectable=0;fillColor=none;top=0;left=0;bottom=0;right=0;align=left;spacingLeft=6;" vertex="1" parent="XPg9PzQZyJ1UFa8llITL-27">
          <mxGeometry x="30" width="220" height="30" as="geometry" />
        </mxCell>
        <mxCell id="XPg9PzQZyJ1UFa8llITL-13" value="affiliate_cost" style="shape=table;startSize=30;container=1;collapsible=1;childLayout=tableLayout;fixedRows=1;rowLines=0;fontStyle=1;align=center;resizeLast=1;" vertex="1" parent="1">
          <mxGeometry x="425" y="390" width="250" height="460" as="geometry" />
        </mxCell>
        <mxCell id="XPg9PzQZyJ1UFa8llITL-14" value="" style="shape=partialRectangle;collapsible=0;dropTarget=0;pointerEvents=0;fillColor=none;points=[[0,0.5],[1,0.5]];portConstraint=eastwest;top=0;left=0;right=0;bottom=1;" vertex="1" parent="XPg9PzQZyJ1UFa8llITL-13">
          <mxGeometry y="30" width="250" height="30" as="geometry" />
        </mxCell>
        <mxCell id="XPg9PzQZyJ1UFa8llITL-15" value="PK" style="shape=partialRectangle;overflow=hidden;connectable=0;fillColor=none;top=0;left=0;bottom=0;right=0;fontStyle=1;" vertex="1" parent="XPg9PzQZyJ1UFa8llITL-14">
          <mxGeometry width="30" height="30" as="geometry" />
        </mxCell>
        <mxCell id="XPg9PzQZyJ1UFa8llITL-16" value="aco_id" style="shape=partialRectangle;overflow=hidden;connectable=0;fillColor=none;top=0;left=0;bottom=0;right=0;align=left;spacingLeft=6;fontStyle=5;" vertex="1" parent="XPg9PzQZyJ1UFa8llITL-14">
          <mxGeometry x="30" width="220" height="30" as="geometry" />
        </mxCell>
        <mxCell id="XPg9PzQZyJ1UFa8llITL-17" value="" style="shape=partialRectangle;collapsible=0;dropTarget=0;pointerEvents=0;fillColor=none;points=[[0,0.5],[1,0.5]];portConstraint=eastwest;top=0;left=0;right=0;bottom=0;" vertex="1" parent="XPg9PzQZyJ1UFa8llITL-13">
          <mxGeometry y="60" width="250" height="30" as="geometry" />
        </mxCell>
        <mxCell id="XPg9PzQZyJ1UFa8llITL-18" value="FK1" style="shape=partialRectangle;overflow=hidden;connectable=0;fillColor=none;top=0;left=0;bottom=0;right=0;" vertex="1" parent="XPg9PzQZyJ1UFa8llITL-17">
          <mxGeometry width="30" height="30" as="geometry" />
        </mxCell>
        <mxCell id="XPg9PzQZyJ1UFa8llITL-19" value="ae_id" style="shape=partialRectangle;overflow=hidden;connectable=0;fillColor=none;top=0;left=0;bottom=0;right=0;align=left;spacingLeft=6;" vertex="1" parent="XPg9PzQZyJ1UFa8llITL-17">
          <mxGeometry x="30" width="220" height="30" as="geometry" />
        </mxCell>
        <mxCell id="XPg9PzQZyJ1UFa8llITL-20" value="" style="shape=partialRectangle;collapsible=0;dropTarget=0;pointerEvents=0;fillColor=none;points=[[0,0.5],[1,0.5]];portConstraint=eastwest;top=0;left=0;right=0;bottom=0;" vertex="1" parent="XPg9PzQZyJ1UFa8llITL-13">
          <mxGeometry y="90" width="250" height="30" as="geometry" />
        </mxCell>
        <mxCell id="XPg9PzQZyJ1UFa8llITL-21" value="" style="shape=partialRectangle;overflow=hidden;connectable=0;fillColor=none;top=0;left=0;bottom=0;right=0;" vertex="1" parent="XPg9PzQZyJ1UFa8llITL-20">
          <mxGeometry width="30" height="30" as="geometry" />
        </mxCell>
        <mxCell id="XPg9PzQZyJ1UFa8llITL-22" value="course_id" style="shape=partialRectangle;overflow=hidden;connectable=0;fillColor=none;top=0;left=0;bottom=0;right=0;align=left;spacingLeft=6;" vertex="1" parent="XPg9PzQZyJ1UFa8llITL-20">
          <mxGeometry x="30" width="220" height="30" as="geometry" />
        </mxCell>
        <mxCell id="XPg9PzQZyJ1UFa8llITL-59" value="account_id" style="shape=partialRectangle;overflow=hidden;connectable=0;fillColor=none;top=0;left=0;bottom=0;right=0;align=left;spacingLeft=6;" vertex="1" parent="1">
          <mxGeometry x="455" y="510" width="220" height="30" as="geometry" />
        </mxCell>
        <mxCell id="XPg9PzQZyJ1UFa8llITL-60" value="ae_name" style="shape=partialRectangle;overflow=hidden;connectable=0;fillColor=none;top=0;left=0;bottom=0;right=0;align=left;spacingLeft=6;" vertex="1" parent="1">
          <mxGeometry x="130" y="250" width="220" height="30" as="geometry" />
        </mxCell>
        <mxCell id="XPg9PzQZyJ1UFa8llITL-61" value="ae_value" style="shape=partialRectangle;overflow=hidden;connectable=0;fillColor=none;top=0;left=0;bottom=0;right=0;align=left;spacingLeft=6;" vertex="1" parent="1">
          <mxGeometry x="130" y="280" width="220" height="30" as="geometry" />
        </mxCell>
        <mxCell id="XPg9PzQZyJ1UFa8llITL-62" value="ae_startDate" style="shape=partialRectangle;overflow=hidden;connectable=0;fillColor=none;top=0;left=0;bottom=0;right=0;align=left;spacingLeft=6;" vertex="1" parent="1">
          <mxGeometry x="130" y="310" width="220" height="30" as="geometry" />
        </mxCell>
        <mxCell id="XPg9PzQZyJ1UFa8llITL-63" value="ae_endDate" style="shape=partialRectangle;overflow=hidden;connectable=0;fillColor=none;top=0;left=0;bottom=0;right=0;align=left;spacingLeft=6;" vertex="1" parent="1">
          <mxGeometry x="130" y="340" width="220" height="30" as="geometry" />
        </mxCell>
        <mxCell id="XPg9PzQZyJ1UFa8llITL-64" value="recordDate" style="shape=partialRectangle;overflow=hidden;connectable=0;fillColor=none;top=0;left=0;bottom=0;right=0;align=left;spacingLeft=6;" vertex="1" parent="1">
          <mxGeometry x="130" y="370" width="220" height="30" as="geometry" />
        </mxCell>
        <mxCell id="XPg9PzQZyJ1UFa8llITL-65" value="modifyDate" style="shape=partialRectangle;overflow=hidden;connectable=0;fillColor=none;top=0;left=0;bottom=0;right=0;align=left;spacingLeft=6;" vertex="1" parent="1">
          <mxGeometry x="130" y="400" width="220" height="30" as="geometry" />
        </mxCell>
        <mxCell id="XPg9PzQZyJ1UFa8llITL-66" value="modifyStaff" style="shape=partialRectangle;overflow=hidden;connectable=0;fillColor=none;top=0;left=0;bottom=0;right=0;align=left;spacingLeft=6;" vertex="1" parent="1">
          <mxGeometry x="130" y="430" width="220" height="30" as="geometry" />
        </mxCell>
        <mxCell id="XPg9PzQZyJ1UFa8llITL-67" value="collection_id" style="shape=partialRectangle;overflow=hidden;connectable=0;fillColor=none;top=0;left=0;bottom=0;right=0;align=left;spacingLeft=6;" vertex="1" parent="1">
          <mxGeometry x="455" y="540" width="220" height="30" as="geometry" />
        </mxCell>
        <mxCell id="XPg9PzQZyJ1UFa8llITL-68" value="withdraw_id" style="shape=partialRectangle;overflow=hidden;connectable=0;fillColor=none;top=0;left=0;bottom=0;right=0;align=left;spacingLeft=6;" vertex="1" parent="1">
          <mxGeometry x="455" y="570" width="220" height="30" as="geometry" />
        </mxCell>
        <mxCell id="XPg9PzQZyJ1UFa8llITL-69" value="title" style="shape=partialRectangle;overflow=hidden;connectable=0;fillColor=none;top=0;left=0;bottom=0;right=0;align=left;spacingLeft=6;" vertex="1" parent="1">
          <mxGeometry x="455" y="600" width="220" height="30" as="geometry" />
        </mxCell>
        <mxCell id="XPg9PzQZyJ1UFa8llITL-70" value="amount" style="shape=partialRectangle;overflow=hidden;connectable=0;fillColor=none;top=0;left=0;bottom=0;right=0;align=left;spacingLeft=6;" vertex="1" parent="1">
          <mxGeometry x="455" y="630" width="220" height="30" as="geometry" />
        </mxCell>
        <mxCell id="XPg9PzQZyJ1UFa8llITL-71" value="status (作用待確認)" style="shape=partialRectangle;overflow=hidden;connectable=0;fillColor=none;top=0;left=0;bottom=0;right=0;align=left;spacingLeft=6;" vertex="1" parent="1">
          <mxGeometry x="455" y="660" width="220" height="30" as="geometry" />
        </mxCell>
        <mxCell id="XPg9PzQZyJ1UFa8llITL-72" value="type (應該都是 cost? )" style="shape=partialRectangle;overflow=hidden;connectable=0;fillColor=none;top=0;left=0;bottom=0;right=0;align=left;spacingLeft=6;" vertex="1" parent="1">
          <mxGeometry x="455" y="690" width="220" height="30" as="geometry" />
        </mxCell>
        <mxCell id="XPg9PzQZyJ1UFa8llITL-73" value="recordDate" style="shape=partialRectangle;overflow=hidden;connectable=0;fillColor=none;top=0;left=0;bottom=0;right=0;align=left;spacingLeft=6;" vertex="1" parent="1">
          <mxGeometry x="455" y="720" width="220" height="30" as="geometry" />
        </mxCell>
        <mxCell id="XPg9PzQZyJ1UFa8llITL-74" value="recordUser" style="shape=partialRectangle;overflow=hidden;connectable=0;fillColor=none;top=0;left=0;bottom=0;right=0;align=left;spacingLeft=6;" vertex="1" parent="1">
          <mxGeometry x="455" y="750" width="220" height="30" as="geometry" />
        </mxCell>
        <mxCell id="XPg9PzQZyJ1UFa8llITL-75" value="modifyDate" style="shape=partialRectangle;overflow=hidden;connectable=0;fillColor=none;top=0;left=0;bottom=0;right=0;align=left;spacingLeft=6;" vertex="1" parent="1">
          <mxGeometry x="455" y="780" width="220" height="30" as="geometry" />
        </mxCell>
        <mxCell id="XPg9PzQZyJ1UFa8llITL-76" value="modifyUser" style="shape=partialRectangle;overflow=hidden;connectable=0;fillColor=none;top=0;left=0;bottom=0;right=0;align=left;spacingLeft=6;" vertex="1" parent="1">
          <mxGeometry x="455" y="810" width="220" height="30" as="geometry" />
        </mxCell>
      </root>
    </mxGraphModel>
  </diagram>
</mxfile>
